<svg width="29" height="29" viewBox="0 0 29 29" fill="none" xmlns="http://www.w3.org/2000/svg">
<path d="M18.729 13.2916C19.73 13.2916 20.5415 12.4801 20.5415 11.4791C20.5415 10.4781 19.73 9.66663 18.729 9.66663C17.728 9.66663 16.9165 10.4781 16.9165 11.4791C16.9165 12.4801 17.728 13.2916 18.729 13.2916Z" fill="black" fill-opacity="0.54"/>
<path d="M10.271 13.2916C11.272 13.2916 12.0835 12.4801 12.0835 11.4791C12.0835 10.4781 11.272 9.66663 10.271 9.66663C9.26998 9.66663 8.4585 10.4781 8.4585 11.4791C8.4585 12.4801 9.26998 13.2916 10.271 13.2916Z" fill="black" fill-opacity="0.54"/>
<path d="M14.4998 19.3333C12.7115 19.3333 11.1769 18.3545 10.3311 16.9166H8.31317C9.27984 19.3937 11.6844 21.1458 14.4998 21.1458C17.3153 21.1458 19.7198 19.3937 20.6865 16.9166H18.6686C17.8348 18.3545 16.2882 19.3333 14.4998 19.3333ZM14.4878 2.41663C7.81775 2.41663 2.4165 7.82996 2.4165 14.5C2.4165 21.17 7.81775 26.5833 14.4878 26.5833C21.1698 26.5833 26.5832 21.17 26.5832 14.5C26.5832 7.82996 21.1698 2.41663 14.4878 2.41663ZM14.4998 24.1666C9.159 24.1666 4.83317 19.8408 4.83317 14.5C4.83317 9.15913 9.159 4.83329 14.4998 4.83329C19.8407 4.83329 24.1665 9.15913 24.1665 14.5C24.1665 19.8408 19.8407 24.1666 14.4998 24.1666Z" fill="black" fill-opacity="0.54"/>
</svg>
