<svg width="56" height="56" viewBox="0 0 56 56" fill="none" xmlns="http://www.w3.org/2000/svg">
<path d="M45.3368 30.2867C45.4301 29.54 45.5001 28.7933 45.5001 28C45.5001 27.2067 45.4301 26.46 45.3368 25.7133L50.2601 21.8633C50.7034 21.5133 50.8201 20.8833 50.5401 20.37L45.8734 12.2967C45.6634 11.9233 45.2668 11.7133 44.8468 11.7133C44.7068 11.7133 44.5668 11.7367 44.4501 11.7833L38.6401 14.1167C37.4268 13.1833 36.1201 12.4133 34.6968 11.83L33.8101 5.64666C33.7401 5.08666 33.2501 4.66666 32.6668 4.66666H23.3334C22.7501 4.66666 22.2601 5.08666 22.1901 5.64666L21.3034 11.83C19.8801 12.4133 18.5734 13.2067 17.3601 14.1167L11.5501 11.7833C11.4101 11.7367 11.2701 11.7133 11.1301 11.7133C10.7334 11.7133 10.3368 11.9233 10.1268 12.2967L5.46011 20.37C5.15678 20.8833 5.29678 21.5133 5.74011 21.8633L10.6634 25.7133C10.5701 26.46 10.5001 27.23 10.5001 28C10.5001 28.77 10.5701 29.54 10.6634 30.2867L5.74011 34.1367C5.29678 34.4867 5.18011 35.1167 5.46011 35.63L10.1268 43.7033C10.3368 44.0767 10.7334 44.2867 11.1534 44.2867C11.2934 44.2867 11.4334 44.2633 11.5501 44.2167L17.3601 41.8833C18.5734 42.8167 19.8801 43.5867 21.3034 44.17L22.1901 50.3533C22.2601 50.9133 22.7501 51.3333 23.3334 51.3333H32.6668C33.2501 51.3333 33.7401 50.9133 33.8101 50.3533L34.6968 44.17C36.1201 43.5867 37.4268 42.7933 38.6401 41.8833L44.4501 44.2167C44.5901 44.2633 44.7301 44.2867 44.8701 44.2867C45.2668 44.2867 45.6634 44.0767 45.8734 43.7033L50.5401 35.63C50.8201 35.1167 50.7034 34.4867 50.2601 34.1367L45.3368 30.2867ZM40.7168 26.2967C40.8101 27.02 40.8334 27.51 40.8334 28C40.8334 28.49 40.7868 29.0033 40.7168 29.7033L40.3901 32.34L42.4668 33.9733L44.9868 35.9333L43.3534 38.7567L40.3901 37.5667L37.9634 36.5867L35.8634 38.1733C34.8601 38.92 33.9034 39.48 32.9468 39.8767L30.4734 40.88L30.1001 43.5167L29.6334 46.6667H26.3668L25.9234 43.5167L25.5501 40.88L23.0768 39.8767C22.0734 39.4567 21.1401 38.92 20.2068 38.22L18.0834 36.5867L15.6101 37.59L12.6468 38.78L11.0134 35.9567L13.5334 33.9967L15.6101 32.3633L15.2834 29.7267C15.2134 29.0033 15.1668 28.4667 15.1668 28C15.1668 27.5333 15.2134 26.9967 15.2834 26.2967L15.6101 23.66L13.5334 22.0267L11.0134 20.0667L12.6468 17.2433L15.6101 18.4333L18.0368 19.4133L20.1368 17.8267C21.1401 17.08 22.0968 16.52 23.0534 16.1233L25.5268 15.12L25.9001 12.4833L26.3668 9.33333H29.6101L30.0534 12.4833L30.4268 15.12L32.9001 16.1233C33.9034 16.5433 34.8368 17.08 35.7701 17.78L37.8934 19.4133L40.3668 18.41L43.3301 17.22L44.9634 20.0433L42.4668 22.0267L40.3901 23.66L40.7168 26.2967ZM28.0001 18.6667C22.8434 18.6667 18.6668 22.8433 18.6668 28C18.6668 33.1567 22.8434 37.3333 28.0001 37.3333C33.1568 37.3333 37.3334 33.1567 37.3334 28C37.3334 22.8433 33.1568 18.6667 28.0001 18.6667ZM28.0001 32.6667C25.4334 32.6667 23.3334 30.5667 23.3334 28C23.3334 25.4333 25.4334 23.3333 28.0001 23.3333C30.5668 23.3333 32.6668 25.4333 32.6668 28C32.6668 30.5667 30.5668 32.6667 28.0001 32.6667Z" fill="#0973A5"/>
</svg>
