<svg width="56" height="56" viewBox="0 0 56 56" fill="none" xmlns="http://www.w3.org/2000/svg">
<path d="M46.6667 18.6667H39.6667V9.33334H7.00004C4.43337 9.33334 2.33337 11.4333 2.33337 14V39.6667H7.00004C7.00004 43.54 10.1267 46.6667 14 46.6667C17.8734 46.6667 21 43.54 21 39.6667H35C35 43.54 38.1267 46.6667 42 46.6667C45.8734 46.6667 49 43.54 49 39.6667H53.6667V28L46.6667 18.6667ZM45.5 22.1667L50.0734 28H39.6667V22.1667H45.5ZM14 42C12.7167 42 11.6667 40.95 11.6667 39.6667C11.6667 38.3833 12.7167 37.3333 14 37.3333C15.2834 37.3333 16.3334 38.3833 16.3334 39.6667C16.3334 40.95 15.2834 42 14 42ZM19.18 35C17.8967 33.5767 16.0767 32.6667 14 32.6667C11.9234 32.6667 10.1034 33.5767 8.82004 35H7.00004V14H35V35H19.18ZM42 42C40.7167 42 39.6667 40.95 39.6667 39.6667C39.6667 38.3833 40.7167 37.3333 42 37.3333C43.2834 37.3333 44.3334 38.3833 44.3334 39.6667C44.3334 40.95 43.2834 42 42 42Z" fill="#0973A5"/>
</svg>
