<svg width="56" height="56" viewBox="0 0 56 56" fill="none" xmlns="http://www.w3.org/2000/svg">
<path d="M38.5 30.3333C35.7 30.3333 31.3367 31.1267 28 32.6667C24.6634 31.1033 20.3 30.3333 17.5 30.3333C12.4367 30.3333 2.33337 32.8533 2.33337 37.9167V44.3333H53.6667V37.9167C53.6667 32.8533 43.5634 30.3333 38.5 30.3333ZM29.1667 40.8333H5.83337V37.9167C5.83337 36.6567 11.8067 33.8333 17.5 33.8333C23.1934 33.8333 29.1667 36.6567 29.1667 37.9167V40.8333ZM50.1667 40.8333H32.6667V37.9167C32.6667 36.8433 32.2 35.91 31.4534 35.07C33.5067 34.37 36.0267 33.8333 38.5 33.8333C44.1934 33.8333 50.1667 36.6567 50.1667 37.9167V40.8333ZM17.5 28C22.0034 28 25.6667 24.3367 25.6667 19.8333C25.6667 15.33 22.0034 11.6667 17.5 11.6667C12.9967 11.6667 9.33337 15.33 9.33337 19.8333C9.33337 24.3367 12.9967 28 17.5 28ZM17.5 15.1667C20.0667 15.1667 22.1667 17.2667 22.1667 19.8333C22.1667 22.4 20.0667 24.5 17.5 24.5C14.9334 24.5 12.8334 22.4 12.8334 19.8333C12.8334 17.2667 14.9334 15.1667 17.5 15.1667ZM38.5 28C43.0034 28 46.6667 24.3367 46.6667 19.8333C46.6667 15.33 43.0034 11.6667 38.5 11.6667C33.9967 11.6667 30.3334 15.33 30.3334 19.8333C30.3334 24.3367 33.9967 28 38.5 28ZM38.5 15.1667C41.0667 15.1667 43.1667 17.2667 43.1667 19.8333C43.1667 22.4 41.0667 24.5 38.5 24.5C35.9334 24.5 33.8334 22.4 33.8334 19.8333C33.8334 17.2667 35.9334 15.1667 38.5 15.1667Z" fill="#0973A5"/>
</svg>
