<svg width="29" height="29" viewBox="0 0 29 29" fill="none" xmlns="http://www.w3.org/2000/svg">
<path d="M22.9583 3.62504H21.75V1.20837H19.3333V3.62504H9.66667V1.20837H7.25V3.62504H6.04167C4.7125 3.62504 3.625 4.71254 3.625 6.04171V22.9584C3.625 24.2875 4.7125 25.375 6.04167 25.375H22.9583C24.2875 25.375 25.375 24.2875 25.375 22.9584V6.04171C25.375 4.71254 24.2875 3.62504 22.9583 3.62504ZM22.9583 22.9584H6.04167V10.875H22.9583V22.9584ZM6.04167 8.45837V6.04171H22.9583V8.45837H6.04167ZM8.45833 13.2917H20.5417V15.7084H8.45833V13.2917ZM8.45833 18.125H16.9167V20.5417H8.45833V18.125Z" fill="black" fill-opacity="0.54"/>
</svg>
