<svg width="26" height="26" viewBox="0 0 26 26" fill="none" xmlns="http://www.w3.org/2000/svg">
<path d="M13 2.16675C8.80746 2.16675 5.41663 5.55758 5.41663 9.75008C5.41663 14.2676 10.205 20.4967 12.1766 22.8692C12.61 23.3892 13.4008 23.3892 13.8341 22.8692C15.795 20.4967 20.5833 14.2676 20.5833 9.75008C20.5833 5.55758 17.1925 2.16675 13 2.16675ZM13 12.4584C11.505 12.4584 10.2916 11.2451 10.2916 9.75008C10.2916 8.25508 11.505 7.04175 13 7.04175C14.495 7.04175 15.7083 8.25508 15.7083 9.75008C15.7083 11.2451 14.495 12.4584 13 12.4584Z" fill="white"/>
</svg>
