<svg width="29" height="29" viewBox="0 0 29 29" fill="none" xmlns="http://www.w3.org/2000/svg">
<path d="M24.1665 4.83329H20.3361L18.1248 2.41663H10.8748L8.66359 4.83329H4.83317C3.504 4.83329 2.4165 5.92079 2.4165 7.24996V21.75C2.4165 23.0791 3.504 24.1666 4.83317 24.1666H24.1665C25.4957 24.1666 26.5832 23.0791 26.5832 21.75V7.24996C26.5832 5.92079 25.4957 4.83329 24.1665 4.83329ZM24.1665 21.75H4.83317V7.24996H9.72692L11.9382 4.83329H17.0615L19.2728 7.24996H24.1665V21.75ZM14.4998 8.45829C11.1648 8.45829 8.45817 11.165 8.45817 14.5C8.45817 17.835 11.1648 20.5416 14.4998 20.5416C17.8348 20.5416 20.5415 17.835 20.5415 14.5C20.5415 11.165 17.8348 8.45829 14.4998 8.45829ZM14.4998 18.125C12.5061 18.125 10.8748 16.4937 10.8748 14.5C10.8748 12.5062 12.5061 10.875 14.4998 10.875C16.4936 10.875 18.1248 12.5062 18.1248 14.5C18.1248 16.4937 16.4936 18.125 14.4998 18.125Z" fill="black" fill-opacity="0.54"/>
</svg>
