<svg width="29" height="29" viewBox="0 0 29 29" fill="none" xmlns="http://www.w3.org/2000/svg">
<path d="M13.2917 8.45833H20.5417V10.875H13.2917V8.45833ZM13.2917 13.2917H20.5417V15.7083H13.2917V13.2917ZM13.2917 18.125H20.5417V20.5417H13.2917V18.125ZM8.45833 8.45833H10.875V10.875H8.45833V8.45833ZM8.45833 13.2917H10.875V15.7083H8.45833V13.2917ZM8.45833 18.125H10.875V20.5417H8.45833V18.125ZM24.2875 3.625H4.7125C4.10833 3.625 3.625 4.10833 3.625 4.7125V24.2875C3.625 24.7708 4.10833 25.375 4.7125 25.375H24.2875C24.7708 25.375 25.375 24.7708 25.375 24.2875V4.7125C25.375 4.10833 24.7708 3.625 24.2875 3.625ZM22.9583 22.9583H6.04167V6.04167H22.9583V22.9583Z" fill="black" fill-opacity="0.54"/>
</svg>
