<svg width="26" height="26" viewBox="0 0 26 26" fill="none" xmlns="http://www.w3.org/2000/svg">
<path d="M20.8325 16.5316L18.0809 16.2174C17.42 16.1416 16.77 16.3691 16.3042 16.8349L14.3109 18.8282C11.245 17.2682 8.73171 14.7657 7.17171 11.6891L9.17588 9.68491C9.64171 9.21908 9.86921 8.56908 9.79338 7.90824L9.47921 5.17824C9.34921 4.08408 8.42838 3.26074 7.32338 3.26074H5.44921C4.22504 3.26074 3.20671 4.27908 3.28254 5.50324C3.85671 14.7549 11.2559 22.1432 20.4967 22.7174C21.7209 22.7932 22.7392 21.7749 22.7392 20.5507V18.6766C22.75 17.5824 21.9267 16.6616 20.8325 16.5316V16.5316Z" fill="white"/>
</svg>
